:FULLY-SPECIFIED
:FORCE-ALL-JOINTS-BE-3DOF
:DEGREES
340
root 8.21692 16.0488 -20.4963 11.014 24.6909 4.60989
lfemur -9.84579 18.2079 -10.6175
ltibia 41.2547 -0 0
lfoot 4.83537 26.8807 -0.867337
ltoes -31.8468 0 0
rfemur -46.5049 -13.4657 6.95747
rtibia 55.2033 -0 0
rfoot 2.74373 -19.9148 -0.406538
rtoes 8.82276 -0 0
lowerback -0.850789 -1.97994 -1.87537
upperback 1.77489 -2.59565 -0.00924235
thorax 2.37645 -1.33613 0.974004
lowerneck -5.34657 -8.82015 -0.714037
upperneck -2.24649 -11.7275 6.46583
head 0.651282 -5.80975 1.84888
lclavicle -3.23025e-14 1.19271e-14 0
lhumerus -48.0146 -35.0214 109.958
lradius 57.6998 -0 0
lwrist 19.1175 0 0
lhand 6.25791 12.6062 0.0160871
lfingers 7.12502 -0 0
lthumb 31.5691 39.8982 0.0142395
rclavicle -3.23025e-14 1.19271e-14 0
rhumerus -21.7295 20.7325 -71.7287
rradius 85.1438 -0 0
rwrist 5.151 0 0
rhand 16.9725 -9.66257 2.86885
rfingers 7.12502 -0 0
rthumb 41.6602 -32.8074 3.03488
341
root 8.14922 16.0765 -20.3244 10.6585 23.1718 4.06779
lfemur -9.3748 17.4744 -9.86434
ltibia 42.3328 -0 0
lfoot 5.86778 26.0948 -1.07455
ltoes -29.0686 0 0
rfemur -45.7886 -13.8977 8.19456
rtibia 54.7246 -0 0
rfoot 1.61566 -18.8907 -0.5472
rtoes 8.30763 -0 0
lowerback -0.907558 -1.9123 -1.73805
upperback 1.74864 -2.50953 0.128777
thorax 2.3774 -1.29349 1.04152
lowerneck -5.47739 -8.57688 -0.75525
upperneck -1.90657 -11.4194 6.32262
head 0.764053 -5.64698 1.80991
lclavicle -3.23025e-14 1.19271e-14 0
lhumerus -47.8896 -34.1528 109.717
lradius 57.5187 -0 0
lwrist 18.9536 0 0
lhand 5.71179 12.4697 0.0145513
lfingers 7.12502 -0 0
lthumb 31.0492 39.8671 0.0130055
rclavicle -3.23025e-14 1.19271e-14 0
rhumerus -23.2957 20.2047 -73.419
rradius 84.9682 -0 0
rwrist 5.60981 0 0
rhand 12.9175 -12.2687 4.23124
rfingers 7.12502 -0 0
rthumb 37.8031 -35.7339 4.52093
342
root 8.07689 16.1053 -20.1487 10.2757 21.6048 3.51411
lfemur -8.88286 16.6653 -9.0643
ltibia 43.5334 -0 0
lfoot 6.88116 24.9897 -1.22656
ltoes -25.4991 0 0
rfemur -45.0629 -14.4051 9.59786
rtibia 54.2157 -0 0
rfoot 0.390187 -17.6483 -0.670895
rtoes 7.71474 -0 0
lowerback -0.914447 -1.83204 -1.60425
upperback 1.7351 -2.40747 0.264191
thorax 2.36302 -1.24232 1.10949
lowerneck -5.61271 -8.32638 -0.7854
upperneck -1.55732 -11.1018 6.17832
head 0.879563 -5.47973 1.7695
lclavicle -3.23025e-14 1.19271e-14 0
lhumerus -47.7712 -33.3038 109.467
lradius 57.3286 -0 0
lwrist 18.7685 0 0
lhand 5.1584 12.3125 0.0106208
lfingers 7.12502 -0 0
lthumb 30.5221 39.815 0.00965966
rclavicle -3.23025e-14 1.19271e-14 0
rhumerus -24.8862 19.4865 -75.1842
rradius 84.7237 -0 0
rwrist 5.93573 0 0
rhand 8.00902 -15.3708 5.53373
rfingers 7.12502 -0 0
rthumb 33.109 -39.2288 5.95618
343
root 8.0008 16.1347 -19.9703 9.87729 19.9999 2.95719
lfemur -8.39705 15.8037 -8.23711
ltibia 44.8375 -0 0
lfoot 7.85933 23.619 -1.31866
ltoes -21.2935 0 0
rfemur -44.3365 -14.9703 11.1316
rtibia 53.6829 -0 0
rfoot -0.911518 -16.2301 -0.767555
rtoes 7.06777 -0 0
lowerback -0.876969 -1.7411 -1.47322
upperback 1.73284 -2.29175 0.396289
thorax 2.335 -1.18376 1.17651
lowerneck -5.75133 -8.06997 -0.804774
upperneck -1.20435 -10.776 6.03376
head 0.99605 -5.30886 1.72786
lclavicle -3.23025e-14 1.19271e-14 0
lhumerus -47.6571 -32.4769 109.205
lradius 57.1338 -0 0
lwrist 18.5691 0 0
lhand 4.59487 12.1364 0.00494949
lfingers 7.12502 -0 0
lthumb 29.985 39.7437 0.00475863
rclavicle -3.23025e-14 1.19271e-14 0
rhumerus -26.469 18.6043 -76.9855
rradius 84.4156 -0 0
rwrist 6.14719 0 0
rhand 2.41204 -18.8913 6.62205
rfingers 7.12502 -0 0
rthumb 27.7308 -43.2058 7.16955
344
root 7.92186 16.1646 -19.7904 9.4738 18.3677 2.40429
lfemur -7.94291 14.914 -7.40091
ltibia 46.2258 -0 0
lfoot 8.78507 22.0361 -1.34916
ltoes -16.6075 0 0
rfemur -43.617 -15.5747 12.7602
rtibia 53.1322 -0 0
rfoot -2.26766 -14.6789 -0.829272
rtoes 6.39042 -0 0
lowerback -0.800643 -1.64136 -1.34417
upperback 1.74038 -2.16466 0.524363
thorax 2.29501 -1.119 1.24118
lowerneck -5.89201 -7.80895 -0.813647
upperneck -0.853188 -10.4437 5.88968
head 1.11175 -5.13524 1.68518
lclavicle -3.23025e-14 1.19271e-14 0
lhumerus -47.545 -31.6743 108.932
lradius 56.9385 -0 0
lwrist 18.3621 0 0
lhand 4.01832 11.9433 -0.0018005
lfingers 7.12502 -0 0
lthumb 29.4352 39.6546 -0.00112683
rclavicle -3.23025e-14 1.19271e-14 0
rhumerus -28.0156 17.5877 -78.7877
rradius 84.0496 -0 0
rwrist 6.26262 0 0
rhand -3.68685 -22.72 7.36585
rfingers 7.12502 -0 0
rthumb 21.8477 -47.5434 8.01476
345
root 7.84095 16.1944 -19.6101 9.07498 16.7189 1.86172
lfemur -7.54433 14.0216 -6.57223
ltibia 47.6791 -0 0
lfoot 9.64051 20.2944 -1.31958
ltoes -11.5964 0 0
rfemur -42.9105 -16.1982 14.4487
rtibia 52.5699 -0 0
rfoot -3.65594 -13.0381 -0.850857
rtoes 5.70637 -0 0
lowerback -0.690997 -1.53468 -1.21633
upperback 1.75626 -2.02846 0.647705
thorax 2.24472 -1.04921 1.30212
lowerneck -6.03355 -7.54463 -0.812274
upperneck -0.509356 -10.1063 5.74675
head 1.22492 -4.95974 1.64161
lclavicle -3.23025e-14 1.19271e-14 0
lhumerus -47.4326 -30.898 108.647
lradius 56.747 -0 0
lwrist 18.1546 0 0
lhand 3.42587 11.7349 -0.00896146
lfingers 7.12502 -0 0
lthumb 28.8699 39.5494 -0.00741507
rclavicle -3.23025e-14 1.19271e-14 0
rhumerus -29.5019 16.4693 -80.5595
rradius 83.6312 -0 0
rwrist 6.30046 0 0
rhand -10.0794 -26.716 7.67444
rfingers 7.12502 -0 0
rthumb 15.666 -52.0861 8.38794
346
root 7.75896 16.224 -19.4304 8.68975 15.0645 1.33484
lfemur -7.22369 13.1525 -5.76617
ltibia 49.1783 -0 0
lfoot 10.4075 18.4473 -1.23465
ltoes -6.41578 0 0
rfemur -42.2212 -16.8198 16.1619
rtibia 52.0021 -0 0
rfoot -5.05372 -11.3511 -0.830232
rtoes 5.03931 -0 0
lowerback -0.553562 -1.42291 -1.08892
upperback 1.77898 -1.88542 0.765606
thorax 2.1858 -0.975591 1.35793
lowerneck -6.17472 -7.27831 -0.800894
upperneck -0.17834 -9.76536 5.60554
head 1.3338 -4.78324 1.59731
lclavicle -3.23025e-14 1.19271e-14 0
lhumerus -47.3178 -30.1503 108.348
lradius 56.5635 -0 0
lwrist 17.9534 0 0
lhand 2.81462 11.513 -0.0158623
lfingers 7.12502 -0 0
lthumb 28.2861 39.4298 -0.0135159
rclavicle -3.23025e-14 1.19271e-14 0
rhumerus -30.908 15.2841 -82.2739
rradius 83.1659 -0 0
rwrist 6.27915 0 0
rhand -16.5427 -30.7178 7.50919
rfingers 7.12502 -0 0
rthumb 9.41071 -56.6547 8.24187
347
root 7.6768 16.2528 -19.2525 8.32631 13.4159 0.828218
lfemur -7.002 12.3336 -4.99664
ltibia 50.7042 -0 0
lfoot 11.0681 16.5472 -1.1021
ltoes -1.22101 0 0
rfemur -41.5516 -17.4173 17.8649
rtibia 51.435 -0 0
rfoot -6.43834 -9.66141 -0.768649
rtoes 4.41292 -0 0
lowerback -0.393873 -1.30786 -0.961213
upperback 1.80705 -1.73778 0.877349
thorax 2.11991 -0.899324 1.40721
lowerneck -6.31432 -7.0113 -0.779725
upperneck 0.134407 -9.42259 5.46654
head 1.43665 -4.6066 1.55241
lclavicle -3.23025e-14 1.19271e-14 0
lhumerus -47.1981 -29.4334 108.035
lradius 56.3922 -0 0
lwrist 17.7654 0 0
lhand 2.18169 11.2793 -0.0218299
lfingers 7.12502 -0 0
lthumb 27.6812 39.2973 -0.0188321
rclavicle -3.23025e-14 1.19271e-14 0
rhumerus -32.2184 14.0696 -83.9076
rradius 82.6592 -0 0
rwrist 6.21713 0 0
rhand -22.852 -34.5601 6.8891
rfingers 7.12502 -0 0
rthumb 3.31096 -61.0645 7.59295
348
root 7.59535 16.2807 -19.0776 7.99226 11.7844 0.345715
lfemur -6.89909 11.5925 -4.27674
ltibia 52.2376 -0 0
lfoot 11.605 14.6464 -0.932354
ltoes 3.83242 -0 0
rfemur -40.9018 -17.9677 19.5225
rtibia 50.8748 -0 0
rfoot -7.78734 -8.01217 -0.67072
rtoes 3.85089 -0 0
lowerback -0.217473 -1.19132 -0.832486
upperback 1.83892 -1.58779 0.982209
thorax 2.0487 -0.821619 1.44859
lowerneck -6.45114 -6.74491 -0.74897
upperneck 0.423456 -9.07958 5.33014
head 1.53171 -4.4307 1.50705
lclavicle -3.23025e-14 1.19271e-14 0
lhumerus -47.0714 -28.7493 107.707
lradius 56.2376 -0 0
lwrist 17.5975 0 0
lhand 1.52416 11.0356 -0.0261893
lfingers 7.12502 -0 0
lthumb 27.0523 39.1534 -0.0227604
rclavicle -3.23025e-14 1.19271e-14 0
rhumerus -33.4213 12.8647 -85.4405
rradius 82.1166 -0 0
rwrist 6.13282 0 0
rhand -28.7939 -38.0919 5.88811
rfingers 7.12502 -0 0
rthumb -2.4172 -65.1457 6.51863
